<?xml version="1.0" encoding="UTF-8"?>
<svg version="1.1" viewBox="0 0 24 24" xmlns="http://www.w3.org/2000/svg">
 <g stroke-width=".63282">
  <path d="m17.909 1.265c-0.36253 0-0.65992 0.13322-0.89063 0.39689-0.26367 0.23072-0.39499 0.52621-0.39499 0.88874s0.13132 0.65992 0.39499 0.89063l1.6312 1.6312h-16.364c-0.36255 0-0.67633 0.13132-0.94001 0.39499-0.23072 0.23072-0.34562 0.52811-0.34562 0.89064 0 0.39551 0.1149 0.70928 0.34562 0.94001 0.26367 0.23072 0.57745 0.34562 0.94001 0.34562h16.364l-1.6312 1.6806c-0.26367 0.23072-0.39499 0.52811-0.39499 0.89064 0 0.36253 0.13132 0.65802 0.39499 0.88874 0.26367 0.26367 0.56106 0.39499 0.89063 0.39499 0.32957 0 0.62506-0.13132 0.88874-0.39499l3.8075-3.8569c0.26367-0.23072 0.39499-0.52621 0.39499-0.88874 0-0.36253-0.13132-0.65992-0.39499-0.89064l-3.8075-3.8056c-0.23072-0.26367-0.52621-0.39689-0.88874-0.39689z"/>
  <path d="m6.0912 12.5c0.36253 0 0.65992 0.13322 0.89063 0.39689 0.26367 0.23072 0.39499 0.52621 0.39499 0.88874s-0.13132 0.65992-0.39499 0.89063l-1.6312 1.6312h16.364c0.36255 0 0.67633 0.13132 0.94001 0.39499 0.23072 0.23072 0.34562 0.52811 0.34562 0.89063 0 0.39551-0.1149 0.70928-0.34562 0.94001-0.26367 0.23072-0.57745 0.34562-0.94001 0.34562h-16.364l1.6312 1.6806c0.26367 0.23072 0.39499 0.52811 0.39499 0.89063 0 0.36253-0.13132 0.65802-0.39499 0.88874-0.26367 0.26367-0.56106 0.39499-0.89063 0.39499-0.32957 0-0.62506-0.13132-0.88874-0.39499l-3.8075-3.8569c-0.26367-0.23072-0.39499-0.52621-0.39499-0.88874 0-0.36253 0.13132-0.65992 0.39499-0.89063l3.8075-3.8056c0.23072-0.26367 0.52621-0.39689 0.88874-0.39689z"/>
 </g>
</svg>
