<svg version="1.2" baseProfile="tiny-ps" xmlns="http://www.w3.org/2000/svg" viewBox="0 0 800 800" width="800" height="800"><title>XSK</title><style>
		tspan { white-space:pre }
		.shp0 { fill: #ffffff }
		.shp1 { fill: none;stroke: #ffffff;stroke-linecap:round;stroke-width: 40 }
		.shp2 { fill: none;stroke: #ffffff;stroke-width: 35 }
	</style><g ><g ><path class="shp0" d="M404 209C404 209 403.4 209.5 402.1 210.3C401.5 210.7 400.8 211.3 399.9 212C399.1 212.7 398.1 213.5 397.1 214.5C395 216.5 392.7 219.1 390.3 222.4C387.9 225.7 385.6 229.7 383.5 234.4C381.5 239.1 379.7 244.4 378.7 250.3C377.7 256.2 377.3 262.6 378.3 268.9C378.5 270.5 378.9 272 379.2 273.6C379.4 274.4 379.6 275.1 379.8 275.9L380.2 277L380.3 277.3L380.3 277.4C380.3 277.3 380.4 277.8 380.3 277.2L380.6 277.9C380.8 278.4 381 278.8 381.1 279.3C381.1 279.4 381.2 279.6 381.2 279.6L381.3 279.8L381.5 280.2L382 281.1L382.6 282.1C383.4 283.5 384.3 284.9 385.2 286.2C387.2 288.9 389.5 291.5 392.2 294.1C394.9 296.7 398 299.2 401.3 301.6C408 306.4 415.8 311 424.2 315.6C428.4 317.9 432.8 320.2 437.4 322.5C439.7 323.7 442 324.8 444.3 326L446.1 326.9C446.3 327 446.1 326.9 446.2 326.9L446.4 327L446.8 327.2L447.7 327.6C448.9 328.2 450.1 328.8 451.3 329.4C453.4 330.4 456.1 331.7 458.5 333C461 334.3 463.6 335.6 466.1 337C471.2 339.7 476.4 342.7 481.5 345.8C491.8 352.1 502 359.2 511.8 367.5C516.7 371.6 521.6 376 526.3 380.8C531 385.6 535.5 390.6 539.8 396.1C548.3 407 556 419.6 561.3 433.7C562 435.4 562.5 437.3 563.2 439.1C563.5 440 563.8 440.9 564.1 441.8L564.9 444.6L565.6 447.4L565.8 448.1C565.7 447.6 566 449.2 566 449.1L566.1 449.4L566.3 450.5L566.8 452.8C567 453.6 567.1 454.2 567.3 455.4C567.6 457.5 568 459.6 568.3 461.7L568.9 467.4C569.1 471.2 569.3 475.1 569.2 478.9C569 486.5 568.3 494 567 501.3C565.6 508.6 563.8 515.8 561.5 522.7C559.2 529.7 556.4 536.4 553.3 542.8C550.2 549.3 546.6 555.6 542.7 561.6C538.8 567.6 534.6 573.4 530.1 578.8C525.5 584.2 520.7 589.5 515.5 594.3C505.1 604 493.6 612.6 480.9 619.2L478.5 620.5L476.1 621.7L473.7 622.8L471.8 623.7L470.8 624.1C469.4 624.7 468 625.2 466.6 625.8L465.6 626.2L465.1 626.4L464.4 626.6L461.7 627.5C459.9 628.1 458.1 628.7 456.3 629.3C454.6 629.8 452.9 630.2 451.2 630.7C447.8 631.6 444.5 632.3 441.1 632.9C427.6 635.4 414.3 635.9 401.6 634.9C388.9 633.9 376.7 631.5 365.3 628.1C353.9 624.7 343.3 620.4 333.5 615.4C323.7 610.4 314.8 604.8 306.7 598.9C290.4 587.2 277.7 574.1 267.6 561.9C257.5 549.6 250.3 537.9 245 528C243.6 525.6 242.5 523.2 241.4 520.9C240.9 519.8 240.3 518.7 239.8 517.7C239.3 516.7 238.8 515.6 238.4 514.6C236.7 510.6 235.2 507.3 234.2 504.5C232.2 498.9 231.2 495.9 231.2 495.9C231.2 495.9 233.2 498.4 236.8 503C237.7 504.2 238.7 505.4 239.9 506.8C241 508.2 242.3 509.7 243.6 511.3C244.9 512.9 246.5 514.6 248.1 516.4C249.7 518.2 251.3 520.2 253.2 522.1C260.5 530 269.8 539.1 281.2 548.1C292.6 557.2 306.2 566.4 321.8 574.1C329.6 577.9 337.9 581.5 346.6 584.5C355.3 587.4 364.5 589.8 373.9 591.4C376.2 591.9 378.6 592.1 381 592.4C383.4 592.8 385.8 592.9 388.2 593.1C390.6 593.4 393 593.3 395.4 593.5L397.2 593.6L399 593.6C400.2 593.6 401.4 593.6 402.6 593.6C403.8 593.6 405 593.5 406.2 593.4C407.4 593.3 408.6 593.2 409.8 593.2C412.2 593 414.6 592.7 417 592.4C419.4 592 421.8 591.6 424.2 591.2C425.4 590.9 426.6 590.7 427.7 590.4L429.5 590C430.1 589.9 430.7 589.7 431.2 589.5C433.5 588.8 435.9 588.2 438.1 587.4C439.2 587 440.4 586.6 441.5 586.2C442.5 585.8 443.4 585.4 444.4 585L445.9 584.4L446.3 584.3L446.8 584.1L447.8 583.6C449.1 583 450.5 582.3 451.8 581.7L452.8 581.2C453 581.1 451.7 581.7 452.4 581.4L452.6 581.3L453 581.1L454.6 580.2L456.2 579.3L457.8 578.3C459.9 577.1 461.9 575.7 464 574.3L467 572.1C468 571.4 469 570.5 470 569.8C473.9 566.7 477.7 563.3 481.3 559.6C495.7 544.9 507.3 526.3 513.8 506.9C515.4 502 516.7 497.1 517.7 492.2C518.6 487.3 519.2 482.4 519.4 477.6C519.5 475.2 519.4 472.8 519.4 470.5L519.2 467C519.1 466 519 465.1 518.9 464.2C518.9 463.9 518.7 462.9 518.6 462.2L518.2 459.9L518 458.8L517.9 458.5C517.9 458.2 518.1 459.7 518 459L517.9 458.6L517.5 456.9L517.1 455.2C517 454.6 516.8 454.1 516.6 453.5C516.2 452.4 516 451.2 515.6 450.1C514.2 445.6 512.2 441.2 510 436.8C507.8 432.4 505.2 428.1 502.3 424C496.5 415.7 489.7 407.8 482.2 400.4C478.4 396.7 474.6 393.2 470.6 389.8C466.6 386.4 462.5 383.1 458.4 379.9C454.2 376.7 450 373.7 445.7 370.7C443.6 369.2 441.4 367.8 439.2 366.4C436.9 364.9 434.7 363.4 432.4 362C431.3 361.3 430.2 360.5 429.1 359.8L427.3 358.6L425.7 357.5C423.5 356 421.3 354.5 419.1 353C414.7 350 410.4 346.9 406.2 343.8C397.7 337.5 389.5 330.9 382.2 323.4C378.5 319.6 375.1 315.7 372 311.5C368.9 307.3 366.2 302.8 364.1 298C363.1 295.6 362.1 293.2 361.4 290.7C360.7 288.5 359.8 285 359.7 283.4L359.6 282.7C359.4 282 359.5 282.4 359.5 282.2L359.5 282L359.4 281.5C359.3 280.9 359.2 280.3 359.2 279.7C359.1 278.5 359 277.3 358.9 276.1C358.8 273.7 358.9 271.5 359 269.2C359.7 260.3 361.9 252.6 364.9 246C367.8 239.4 371.3 233.8 374.9 229.2C376.7 226.9 378.6 224.8 380.4 223C382.3 221.2 384.1 219.6 385.8 218.2C389.3 215.4 392.6 213.5 395.3 212.2C396.6 211.5 397.9 211 398.9 210.6C400 210.2 400.9 209.9 401.6 209.6C403.2 209.2 404 209 404 209Z" /></g></g><g ><path class="shp1" d="M475.4 235.3C460.7 215.1 437.5 205.9 414.4 212.2C396.5 217.1 383 228.6 376.9 243.6C371.8 256.1 373.3 267.3 373.8 270.5C378.8 304.3 416.5 320.4 419.7 321.7C463 339.4 482.5 351.2 495.6 362.8C505.7 371.8 512.2 380.1 516.8 386C528.7 401.3 545.3 422.8 549.9 451.8C555.5 487.3 540.4 516.5 533.3 528.3" /></g><g ><g ><path class="shp0" d="M479.8 236.2C479.8 236.2 479.8 236.4 479.7 236.8C479.6 237.2 479.4 237.8 479.4 238.3C479.4 238.9 479.3 239.6 479.4 240.3C479.4 240.7 479.4 241 479.5 241.4C479.6 241.8 479.6 242.1 479.7 242.5C479.9 243.2 480.1 243.9 480.4 244.5C480.7 245.1 481 245.7 481.3 246.3C481.6 246.9 481.9 247.5 482.2 248.1C482.4 248.4 482.5 248.7 482.7 249L482.8 249.2L482.8 249.3C482.8 249.2 482.9 249.5 482.7 249.1L482.7 249.1L482.7 249.1L482.7 249.1L482.8 249.3L483.2 250.1C483.4 250.4 483.4 250.5 483.6 250.9C483.7 251.1 483.8 251.2 483.8 251.4C483.9 251.6 484 251.7 484.1 251.9C484.4 252.6 484.8 253.3 485.2 254C485.6 254.7 485.9 255.4 486.3 256.2C486.7 256.9 487.1 257.7 487.5 258.4C487.9 259.1 488.4 259.8 488.8 260.4C489.2 261 489.7 261.6 490.1 262.1C490.5 262.6 490.8 263 491.1 263.3C491.4 263.6 491.5 263.8 491.5 263.8C491.5 263.8 491.3 264 491 264.2C490.7 264.4 490.2 264.8 489.6 265.1C489 265.4 488.1 265.7 487.2 266C486.7 266.1 486.2 266.2 485.6 266.2C485 266.3 484.5 266.2 483.9 266.2C483.3 266.2 482.7 266.1 482 266C481.4 265.9 480.7 265.7 480 265.5C478.7 265.1 477.3 264.5 476.1 263.6C474.8 262.8 473.6 261.8 472.5 260.6C472 260 471.4 259.4 471 258.7C470.5 258.1 470 257.1 469.6 256.3L469.2 255.5L469.1 255.3L469 254.9L468.9 254.7L468.7 254.1C468.4 253.3 468.2 252.5 468.1 251.6C467.8 249.9 467.7 248.2 468 246.5C468.2 244.8 468.7 243.3 469.4 241.9C469.7 241.2 470.2 240.6 470.6 240C471.1 239.4 471.5 238.9 472 238.4C473 237.5 474 236.8 475 236.4C475.5 236.2 475.9 236 476.4 235.9C476.8 235.8 477.2 235.7 477.6 235.7C478.4 235.6 478.9 235.8 479.3 235.8C479.6 236.2 479.8 236.2 479.8 236.2Z" /></g></g><g ><g ><path class="shp0" d="M252.5 245.4C252.5 245.4 253.9 246.9 256.2 249.7C257.4 251.1 258.8 252.8 260.4 254.9C262 257 263.9 259.2 265.9 261.7C269.9 266.6 274.7 272.5 280.2 279.4C285.7 286 291.7 293.3 298.4 300.7C305 308.1 312.1 315.8 319.8 323.2C320.7 324.2 321.8 325 322.7 326C323.7 326.9 324.6 327.8 325.6 328.8C326.6 329.7 327.6 330.6 328.6 331.5C329.6 332.4 330.6 333.3 331.6 334.2C332.6 335.1 333.7 335.9 334.7 336.8C335.7 337.7 336.7 338.6 337.8 339.5C339.9 341.2 342 342.9 344.2 344.6C345.3 345.4 346.4 346.3 347.4 347.1C348.5 348 349.6 348.7 350.7 349.5C352.9 351.2 355.2 352.7 357.4 354.3L357.8 354.6C358.3 355.1 357.2 354.1 357.3 354.2L357.4 354.3L357.7 354.5L358.8 355.2L360.9 356.7L363 358.2L363.5 358.6C363.7 358.7 363.8 358.8 363.9 358.8L364.7 359.3C365.8 359.9 366.8 360.6 367.8 361.2C369 361.9 370.2 362.6 371.3 363.4C376.1 366.3 381 369.2 386.2 371.9C391.3 374.7 396.6 377.4 402.2 380.2C407.8 383 413.5 385.7 419.5 388.6C425.5 391.5 431.8 394.5 438.2 397.8C444.7 401.1 451.3 404.7 458.1 408.8C464.9 412.9 471.8 417.5 478.5 422.9C481.8 425.6 485.1 428.5 488.3 431.6C489.1 432.4 489.9 433.1 490.7 433.9C491.5 434.7 492.2 435.5 493 436.3C493.7 437.1 494.5 437.9 495.2 438.7C495.9 439.6 496.6 440.4 497.3 441.3C498.7 443 500.1 444.7 501.4 446.5C502.1 447.4 502.7 448.3 503.3 449.2L504.2 450.5L505.1 451.9C506.3 453.8 507.4 455.6 508.5 457.4C509.5 459.3 510.5 461.2 511.5 463.1C512.4 465 513.2 466.9 514.1 468.8C514.5 469.7 514.9 470.7 515.3 471.6C515.6 472.6 516 473.5 516.3 474.4C516.6 475.3 516.9 476.3 517.3 477.2L517.5 477.9L517.6 478.2L517.7 478.4C518.6 480.3 518 479 518.2 479.5L518.4 480.6C518.7 482 519 483.5 519.3 484.9L519.5 486L519.8 487.5C520 488.5 520.2 489.5 520.4 490.5C520.6 491.5 520.8 492.5 521 493.5L521.3 495L521.4 496.3C521.8 499.9 522.2 503.3 522.2 506.7C522.4 513.4 521.8 519.7 521 525.5C520.5 528.4 520 531.2 519.4 533.8C518.7 536.4 518.1 539 517.3 541.4C514.3 551 510.5 558.6 506.9 564.6C503.4 570.6 500.1 574.9 497.8 577.7C495.4 580.5 494.1 582 494.1 582C494.1 582 493.6 580 492.9 576.5C492.1 572.9 491.1 567.8 489.7 561.7C488.2 555.5 486.3 548.3 483.7 540.7C483.5 540.2 483.4 539.8 483.2 539.3C483 538.8 482.8 538.4 482.6 537.9C482.2 537 481.9 536 481.5 535C480.7 533.1 479.9 531.2 479.1 529.3C477.3 525.5 475.4 521.8 473.1 518.2C472.8 517.8 472.5 517.3 472.3 516.9C472 516.4 471.8 516 471.4 515.6C470.8 514.8 470.2 513.9 469.6 513L469.2 512.4C469 512.2 468.9 512.1 468.7 511.9L467.9 511L467.1 510.1L466.7 509.6L466.1 508.8C465.2 507.6 464.3 506.5 463.5 505.3L462.8 504.4C463 504.8 462.3 503.4 463.2 505.2L463.1 505.1L463 505L462.7 504.7L461.6 503.6C460.9 502.9 460.2 502.2 459.4 501.5C458.6 500.9 458 500.2 457.2 499.6C456.4 499 455.6 498.4 454.9 497.8C454.1 497.2 453.3 496.7 452.5 496.1C451.8 495.5 450.8 495.1 450 494.5C449.2 494 448.3 493.5 447.5 493L446.2 492.3L444.8 491.6L443.5 490.9C443.1 490.7 442.5 490.4 442.1 490.2C441.1 489.7 440.2 489.2 439.1 488.8C438 488.4 437.1 487.8 436 487.4C427.4 483.6 416.5 479.8 404.1 475.1C397.9 472.8 391.3 470.3 384.5 467.5C377.7 464.7 370.7 461.6 363.6 458.1C356.6 454.6 349.5 450.7 342.5 446.4C335.5 442.1 328.8 437.3 322.3 432.2C320.7 430.9 319.1 429.7 317.5 428.3C315.8 426.8 314.1 425.4 312.4 423.9L311.2 422.8L310.6 422.3L310.1 421.9L308.3 420.1L306.5 418.3L305.6 417.4L305.4 417.2L305.3 417.1C305.4 417.2 304.1 416.1 304.6 416.5L304.1 416C301.3 413.1 298.5 410.2 295.9 407.1C293.2 404.1 290.8 401 288.4 397.9C278.8 385.5 271.3 372.4 265.6 359.7C259.8 347 256 334.5 253.4 323C250.7 311.5 249.6 300.8 249 291.4C248.8 289.1 248.8 286.7 248.8 284.5C248.8 282.3 248.8 280.2 248.8 278.1C248.8 276.1 248.9 274.1 249 272.2C249.1 270.3 249.2 268.5 249.4 266.8C249.5 265.1 249.7 263.5 249.8 262C249.9 260.5 250.2 259.1 250.4 257.8C250.8 255.2 251.2 253 251.5 251.2C252 247.4 252.5 245.4 252.5 245.4Z" /></g><g ><path class="shp0" d="M251.9 244.4C251.9 244.4 252.8 246.3 254.4 249.9C256 253.4 258 258.7 260.5 265.3C261.8 268.5 263.2 272 264.7 275.8C265.4 277.7 266.2 279.6 266.9 281.7C267.3 282.7 267.7 283.7 268.2 284.8C268.6 285.8 269 286.9 269.5 288C270.4 290.2 271.2 292.4 272.1 294.6C272.5 295.7 273 296.9 273.4 298C273.9 299.1 274.4 300.3 274.9 301.5C275.9 303.8 276.9 306.2 277.8 308.6C278.3 309.8 278.8 311 279.3 312.3C279.8 313.5 280.4 314.7 280.9 315.9C282 318.3 283.1 320.8 284.2 323.3C284.7 324.6 285.4 325.8 286 327C286.6 328.2 287.2 329.5 287.8 330.7C289.1 333.2 290.1 335.8 291.5 338.2C292.9 340.6 294.1 343.1 295.4 345.6C300.9 355.3 307 364.7 313.7 372.6C314.1 373.1 314.5 373.6 314.9 374.1L316.2 375.5C317.1 376.4 317.9 377.4 318.8 378.3C319.6 379.2 320.6 380 321.5 380.9L322.8 382.2C323 382.4 323.2 382.6 323.5 382.8L324.2 383.4C325.1 384.2 326 385 326.9 385.8C327.3 386.2 327.8 386.6 328.3 386.9L329.7 388C330.2 388.4 330.6 388.7 331.1 389.1C331.6 389.5 332.1 389.8 332.6 390.1L334.1 391.1L334.8 391.6L335.2 391.9C335.4 392.1 333.5 390.5 334.4 391.2L334.5 391.3L334.8 391.5C336.3 392.5 337.9 393.6 339.4 394.6C339.9 394.9 340 395 340.2 395.1L340.8 395.4C341.2 395.6 341.6 395.8 341.9 396L342.5 396.3L343.3 396.7L344.9 397.5C345.4 397.8 346 398.1 346.5 398.4L348.2 399.2C352.7 401.4 357.7 403.3 363.1 405.2C373.9 408.9 386.7 412.1 401 415.7C408.1 417.5 415.6 419.5 423.4 421.9C431.2 424.3 439.2 427.1 447.3 430.6C449.3 431.4 451.4 432.4 453.4 433.4C454.4 433.9 455.4 434.4 456.4 434.9C457.4 435.4 458.4 436 459.4 436.5C460.4 437 461.4 437.6 462.4 438.1C463.4 438.7 464.4 439.3 465.4 439.9C467.4 441.1 469.3 442.3 471.2 443.6C472.2 444.3 473.1 444.9 474.1 445.6L475.5 446.6L476.9 447.7C478.7 449.1 480.6 450.6 482.3 452.1C484 453.6 485.8 455.2 487.4 456.7C489.1 458.3 490.6 460 492.2 461.6C493.8 463.2 495.1 465 496.6 466.7C497.3 467.6 498 468.4 498.7 469.3C499.3 470.2 500 471.1 500.6 472C501.8 473.8 503.1 475.5 504.2 477.3C505.3 479.1 506.3 480.9 507.3 482.7L507.7 483.4L507.9 483.7C507.8 483.6 509.1 485.4 508.6 484.7L508.7 484.8L509.1 485.9C509.4 486.6 509.7 487.3 510 488C510.7 489.6 511.3 491.2 512 492.8C512.8 494.8 513.6 496.8 514.4 498.7C514.8 499.7 515 500.5 515.3 501.4C515.6 502.3 515.8 503.2 516.1 504C520.1 518 520.5 530.8 519.7 541.5C518.8 552.3 516.6 561.1 514.2 568.1C511.8 575.1 509.4 580.3 507.6 583.8C506.7 585.5 505.9 586.8 505.4 587.7C504.9 588.6 504.6 589 504.6 589C504.6 589 503.8 587 502.5 583.4C501.1 579.8 499.2 574.6 496.6 568.4C494 562.2 490.7 554.9 486.5 547.6C482.3 540.3 477.1 532.8 470.9 526.5C470.5 526.1 470.1 525.7 469.7 525.3C469.3 524.9 468.9 524.4 468.6 524.2C467.9 523.6 467.2 523.1 466.5 522.6C466 522.3 464.7 521 463.6 520C463 519.5 462.5 518.9 461.9 518.4L461.1 517.6L461 517.5C460.4 516.7 461.7 518.4 461.5 518.3L461.3 518.2L461 518C457.5 515.4 453.8 513.4 450 511.6C449 511.2 448.1 510.8 447.1 510.4C446.1 510 445.1 509.7 444.1 509.3C442 508.6 440 507.9 437.8 507.4C436.8 507.1 435.6 506.8 434.4 506.6L432.7 506.2L430.9 505.8L429.1 505.4C428.5 505.3 427.8 505.2 427.2 505.1C425.9 504.9 424.7 504.6 423.3 504.4C417.9 503.5 412 502.6 405.6 501.8C399.1 501 392.1 500.1 384.7 499C369.8 496.8 352.9 493.9 335.1 487.7C326.2 484.6 317.2 480.7 308.4 475.9L305.1 474.1C304 473.5 302.9 472.8 301.9 472.1L298.7 470.1L297.1 469.1L295.3 467.9C294.1 467.1 292.9 466.2 291.8 465.4L290.1 464.1C289.5 463.7 288.9 463.2 288.6 463C287.2 461.8 285.7 460.6 284.3 459.4L284 459.2L283.9 459.1C284.7 459.7 282.6 458.1 282.8 458.2L282.1 457.6L280.7 456.3L277.9 453.7C277 452.8 276 452 275.2 451.1L272.6 448.4L270.1 445.6C269.3 444.7 268.4 443.8 267.7 442.8C266.2 440.9 264.6 439 263.1 437L262 435.6C261.6 435.1 261.3 434.6 261 434.1L259 431.1C258.3 430.1 257.7 429.1 257 428.1C256.4 427.1 255.6 426.1 255.1 425.1C253.9 423.1 252.8 421 251.6 419C251 418 250.5 417 249.9 416C249.4 415 248.9 414 248.4 412.9C240.5 396.6 236 380.4 233.6 365.4C232.6 357.9 231.7 350.6 231.6 343.7C231.5 342 231.5 340.3 231.4 338.6C231.3 336.9 231.3 335.2 231.4 333.6C231.5 330.3 231.6 327.1 231.8 323.9C231.9 322.3 232 320.8 232.1 319.2C232.2 317.7 232.4 316.2 232.6 314.7C233 311.7 233.3 308.8 233.7 306C233.9 304.6 234.1 303.2 234.3 301.9C234.5 300.5 234.8 299.2 235.1 297.9C235.6 295.3 236.1 292.7 236.7 290.3C237.2 287.9 237.7 285.5 238.3 283.2C238.9 280.9 239.5 278.7 240.2 276.6C241.4 272.4 242.6 268.6 243.8 265.2C246.2 258.6 248.5 253.4 250.1 249.9C250.9 246.3 251.9 244.4 251.9 244.4Z" /></g></g><g ><g ><path class="shp0" d="M233.4 497.7C233.4 497.7 234.8 498 237.3 498.6C238.6 498.9 240.1 499.3 241.8 499.9C242.7 500.2 243.6 500.5 244.6 500.7C245.6 501 246.6 501.2 247.7 501.5C249.9 502.1 252.2 502.8 254.8 503.5C257.4 504.2 260.1 505 263 505.7C264.5 506 265.9 506.4 267.4 506.8C268.9 507.2 270.5 507.5 272 507.9C275.1 508.7 278.3 509.2 281.6 509.9C288.2 511.1 295 512 301.7 512.3C302.5 512.4 303.4 512.3 304.2 512.4C305 512.4 305.9 512.4 306.7 512.5C307.5 512.5 308.4 512.4 309.2 512.4C310 512.4 310.8 512.4 311.7 512.3C315 512.2 318.2 511.8 321.4 511.3L322.6 511.1L323.2 511L323.5 511L323.6 511C324.5 511 322.5 511 322.7 511L322.8 511C324 510.8 325.1 510.6 326.3 510.5L328 510.3L328.4 510.2C328.5 510.2 328.6 510.1 328.6 510.1L329 509.9C329.5 509.7 330.1 509.5 330.6 509.4L331 509.3L331.6 509.1L332.7 508.8C333.5 508.6 334.2 508.4 335 508.1C335.8 507.8 336.6 507.6 337.4 507.3C338.3 507 339.1 506.7 340 506.4C343.6 505.2 347.6 503.7 352.6 502.1L354.4 501.5L356.4 500.9C357.7 500.5 359 500.1 360.4 499.7L364.7 498.6C366.1 498.2 367.7 497.9 369.2 497.6C372.2 496.9 375.3 496.4 378.5 496C380.1 495.7 381.7 495.6 383.2 495.5C384.8 495.4 386.4 495.2 387.9 495.1C391 495 394.2 494.9 397.3 495C398.8 495 400.4 495.1 401.9 495.2C403.4 495.3 404.9 495.3 406.4 495.5C407.9 495.7 409.3 495.8 410.8 496L413 496.3L414.2 496.4L415.1 496.5C416.3 496.7 417.6 496.9 418.8 497.1C420.1 497.3 421.5 497.6 422.8 497.9C428.2 499 433.7 500.3 439.2 502.1C450.2 505.7 461 511 470 517.9C472.2 519.7 474.4 521.4 476.4 523.3C477.4 524.3 478.4 525.1 479.3 526.1C480.2 527.1 481.1 528.1 482 529.1C482.4 529.6 482.9 530.1 483.3 530.6C483.7 531.1 484.1 531.6 484.5 532.1C485.3 533.1 486.1 534.1 486.8 535.1L487.1 535.5L487.2 535.7C488.2 536.7 487.5 536 487.7 536.2L487.7 536.3L488.1 536.9C488.3 537.3 488.6 537.7 488.8 538.2C489 538.6 489.3 539 489.5 539.5C489.7 539.9 489.9 540.3 490.3 540.9C491 542 491.6 543.2 492.3 544.3C492.6 544.9 492.9 545.4 493.2 546C493.4 546.5 493.7 547 493.9 547.6C494.4 548.6 494.8 549.6 495.2 550.6C495.6 551.6 496 552.6 496.3 553.6C497.8 557.6 498.7 561.4 499.3 565C500.5 572.2 500.4 578.4 499.8 583.4C499.5 585.9 499.1 588.1 498.6 589.9C498.2 591.8 497.7 593.3 497.3 594.6C496.9 595.8 496.5 596.8 496.3 597.4C496 598 495.9 598.4 495.9 598.4C495.9 598.4 495.1 597.3 493.5 595.2C493.1 594.7 492.7 594.1 492.2 593.5C491.7 592.9 491.2 592.2 490.7 591.5C490.2 590.8 489.5 590.1 488.9 589.3C488.3 588.5 487.6 587.7 486.9 586.9C484 583.6 480.4 580 476.3 576.6C474.2 574.9 472 573.2 469.6 571.7C469 571.3 468.4 571 467.8 570.6C467.2 570.3 466.6 569.9 466 569.5C465.7 569.3 465.4 569.2 465.1 569C464.8 568.9 464.5 568.8 464.3 568.6C463.8 568.4 463.2 568.1 462.7 567.9C462.5 567.8 462 567.5 461.6 567.3C461.2 567.1 460.8 566.8 460.3 566.6C459.9 566.4 459.5 566.1 459 565.9L458.4 565.5L458.3 565.5C458.5 565.7 457.8 565 458.7 565.9L458.6 565.9L458.3 565.8C457.6 565.6 456.9 565.3 456.3 565L455.3 564.6C455 564.5 454.6 564.4 454.3 564.3C453.6 564.1 452.9 563.9 452.2 563.6C451.5 563.4 450.8 563.2 450.1 563C449.4 562.8 448.7 562.6 448 562.5C447.3 562.3 446.6 562.2 445.9 562C440.1 560.9 434 560.3 427 560.1C423.5 560 419.9 560 415.9 560.1C413.8 560.1 411.6 560.1 409.5 560.1L408.6 560.1C408.6 560.1 408.4 560.1 408.6 560.1L408.5 560.1L408.3 560.1L408 560.1L406.6 560.2C405.7 560.2 404.7 560.3 403.8 560.3C402.9 560.3 402 560.4 401.1 560.5C400.2 560.6 399.3 560.6 398.4 560.7C397.5 560.7 396.6 560.9 395.8 561L393.2 561.3C392.3 561.4 391.5 561.6 390.7 561.7C389.9 561.8 389 561.9 388.2 562.1C386.5 562.4 384.8 562.7 383 563.1C381.3 563.4 379.4 563.9 377.5 564.3L374.5 565.1L371.3 565.9C367 567 361.7 568.4 355.9 569.5C354.4 569.8 353 570.1 351.5 570.3C349.9 570.5 348.4 570.8 346.9 570.9C345.4 571.1 343.8 571.2 342.2 571.4L339.8 571.6L338.6 571.7C338.2 571.7 337.7 571.9 337.3 571.9C335.5 571.9 333.7 572.1 331.9 572.1L330.6 572.1C330.4 572.1 330.1 571.9 330 571.9L329.6 571.8L327.8 571.6C326.6 571.5 325.5 571.3 324.3 571.2L324.2 571.2C324.4 571.2 322.3 571.2 323.1 571.2L322.8 571.2L322.2 571.1L321.1 571L318.8 570.7C317.3 570.5 315.8 570.2 314.4 569.9C312.9 569.6 311.5 569.3 310.1 569C308.7 568.6 307.3 568.3 305.9 567.9C304.5 567.5 303.2 567 301.8 566.6C299.1 565.8 296.5 564.7 294 563.7C291.5 562.6 289 561.5 286.7 560.3C277.4 555.5 269.7 549.8 263.3 544C260.2 541 257.3 538.2 254.8 535.2C252.2 532.3 250.1 529.5 248.1 526.7C247.6 526 247.1 525.4 246.7 524.7C246.2 524 245.8 523.3 245.4 522.7C244.6 521.4 243.8 520.1 243 518.9C241.5 516.5 240.2 514 239.1 511.9C238 509.7 237.1 507.8 236.4 506.1C235.7 504.4 235.2 502.9 234.7 501.7C233.8 499 233.4 497.7 233.4 497.7Z" /></g><g ><path class="shp0" d="M305.3 573.2C305.3 573.2 306 572.5 307.3 571.4C307.9 570.8 308.7 570.2 309.7 569.4C310.2 569 310.7 568.6 311.2 568.2C311.7 567.8 312.3 567.4 312.9 566.9C315.3 565.1 318.2 563.1 321.6 561.1C325 559.1 328.7 557 332.9 555C337 553 341.5 551.1 346.3 549.4C351.1 547.7 356.1 546.2 361.3 544.9C371.7 542.3 382.9 540.8 394.1 540.5C399.7 540.3 405.3 540.4 410.8 540.8C416.3 541.2 421.8 541.9 427.1 542.8C432.4 543.8 437.5 545 442.4 546.4C447.3 547.8 451.9 549.4 456.1 551.2C460.4 552.9 464.3 554.8 467.7 556.6C471.2 558.4 474.2 560.2 476.7 561.9C477.3 562.3 477.9 562.7 478.5 563.1C479.1 563.5 479.6 563.9 480.1 564.2C481.1 564.9 481.9 565.5 482.6 566C483.9 567 484.7 567.7 484.7 567.7C484.7 567.7 484 568.4 482.7 569.5C482.1 570.1 481.3 570.7 480.3 571.5C479.8 571.9 479.3 572.3 478.8 572.7C478.3 573.1 477.7 573.5 477.1 574C474.7 575.8 471.8 577.8 468.4 579.8C465 581.8 461.3 583.9 457.1 585.9C453 587.9 448.5 589.8 443.7 591.5C438.9 593.2 433.9 594.7 428.7 596C423.5 597.3 418.1 598.3 412.6 599C407.1 599.7 401.5 600.2 395.9 600.3C384.7 600.6 373.5 599.8 362.9 597.9C357.6 596.9 352.5 595.7 347.6 594.3C342.7 592.9 338.1 591.3 333.9 589.5C329.6 587.8 325.7 585.9 322.3 584.1C318.8 582.3 315.8 580.5 313.3 578.8C312.7 578.4 312.1 578 311.5 577.6C310.9 577.2 310.4 576.8 309.9 576.5C308.9 575.8 308.1 575.2 307.4 574.7C306 573.9 305.3 573.2 305.3 573.2Z" /></g></g><g ><g ><path class="shp2" d="M390.5 58.9C395.5 56.6 403.7 56.6 408.7 58.9L681.5 183.9C686.5 186.2 691.6 192.4 692.9 197.8L760.1 478C761.4 483.4 759.5 491.2 756 495.4L567.5 720.4C564 724.6 556.6 728.1 551.1 728.1L248.1 728.1C242.6 728.1 235.2 724.6 231.7 720.4L43.2 495.4C39.7 491.2 37.8 483.4 39.1 478L106.3 197.9C107.6 192.5 112.7 186.3 117.7 184L390.5 58.9Z" /></g></g></svg>